<svg width="100" height="100" viewBox="0 0 100 100" fill="none" xmlns="http://www.w3.org/2000/svg">
<rect width="100" height="100" fill="#1C4831"/>
<path d="M19.1769 63.8749C19.1601 63.8749 19.1601 63.8911 19.1433 63.8911C19.0593 64.0202 18.7735 64.472 18.5382 65.1013C18.3028 65.7468 18.1684 66.5052 18.1684 67.1507C18.1684 67.183 18.1852 67.1991 18.2188 67.1991H29.2624H70.2765H81.3201C81.3537 67.1991 81.3705 67.183 81.3705 67.1507C81.3705 66.5214 81.236 65.7468 81.0007 65.1013C80.7822 64.472 80.4796 64.0202 80.3956 63.8911C80.3956 63.8911 80.3788 63.8749 80.362 63.8749C79.8409 63.8911 77.0842 63.9879 74.2099 64.0363L72.7475 64.0524V49.1905H81.1352C81.4378 49.1905 82.2446 48.5612 82.9506 47.3994C83.2868 46.8507 83.4885 46.3666 83.5389 46.2214C83.5389 46.2052 83.5389 46.1891 83.5389 46.1891C83.5389 46.173 83.5221 46.173 83.5053 46.173C81.2697 45.5759 77.5212 43.1715 75.0167 40.7026C73.1677 38.8792 72.1255 37.4753 71.5204 35.9907C70.8817 34.4093 70.848 32.844 70.9153 32.0049C69.974 31.9727 68.8478 32.1017 67.9905 32.3115C67.5871 32.4083 67.2341 32.5052 67.1668 32.9731L67.1332 33.1022H66.9988C66.9651 33.1022 63.9227 33.2152 60.7626 33.2636L59.4683 33.2797H40.1042L38.8099 33.2636C35.6498 33.2152 32.5906 33.1022 32.5738 33.1022H32.4393L32.4057 32.9731C32.3384 32.489 31.9854 32.4083 31.582 32.3115C30.7248 32.1017 29.5985 31.9888 28.6572 32.0049C28.7077 32.844 28.6909 34.4093 28.0521 35.9907C27.447 37.4753 26.4048 38.8953 24.5558 40.7026C22.0513 43.1715 18.3196 45.5759 16.0336 46.173C16.0168 46.173 16.0168 46.1891 16 46.1891C16 46.1891 16 46.2052 16 46.2214C16.0672 46.3989 16.2689 46.8668 16.5883 47.3994C17.2943 48.5773 18.1011 49.1905 18.4037 49.1905H26.7914V64.0524L25.329 64.0363C22.4547 64.004 19.698 63.9072 19.1769 63.8749ZM69.1503 64.1493H58.6614V49.2067H69.1503V64.1493ZM55.0307 64.1493H44.5418V49.2067H55.0307V64.1493ZM40.9111 64.1493H30.4222V49.2067H40.9111V64.1493ZM76.6808 46.2052H22.8917L23.2447 45.9309C23.3624 45.8341 23.4968 45.7373 23.6313 45.6243C24.8584 44.6722 26.9091 43.0586 28.6909 41.1222C30.6071 39.0244 31.6493 37.0719 31.8342 36.4587L31.8678 36.3457H67.6711L67.7047 36.4587C67.9065 37.0719 68.9318 39.0405 70.848 41.1222C72.6298 43.0747 74.6805 44.6722 75.9076 45.6243C76.0589 45.7373 76.1765 45.8341 76.2942 45.9309L76.6808 46.2052Z" fill="white"/>
</svg>
