<svg width="88" height="26" viewBox="0 0 88 26" fill="none" xmlns="http://www.w3.org/2000/svg">
<rect width="88" height="26" rx="2" fill="#BBB9B9"/>
<path d="M26.635 5.595H27.88V19.17H26.635V5.595ZM22.66 7.065H23.89C23.89 8.045 23.77 8.99 23.53 9.9C23.3 10.81 22.935 11.675 22.435 12.495C21.935 13.305 21.285 14.06 20.485 14.76C19.685 15.46 18.715 16.085 17.575 16.635L16.915 15.63C18.225 15 19.305 14.265 20.155 13.425C21.005 12.585 21.635 11.65 22.045 10.62C22.455 9.58 22.66 8.46 22.66 7.26V7.065ZM17.545 7.065H23.185V8.07H17.545V7.065ZM31.1338 14.865H32.1988C33.0288 14.865 33.7888 14.855 34.4788 14.835C35.1688 14.815 35.8338 14.775 36.4738 14.715C37.1238 14.655 37.7888 14.565 38.4688 14.445L38.5888 15.465C37.8988 15.585 37.2238 15.68 36.5638 15.75C35.9038 15.81 35.2188 15.85 34.5088 15.87C33.8088 15.89 33.0388 15.9 32.1988 15.9H31.1338V14.865ZM31.1338 6.825H37.4488V7.86H32.3788V15.225H31.1338V6.825ZM32.0638 10.635H37.1488V11.64H32.0638V10.635ZM39.7288 5.595H40.9738V19.17H39.7288V5.595ZM40.6888 11.04H43.1938V12.09H40.6888V11.04ZM54.2777 5.595H55.5077V19.185H54.2777V5.595ZM50.7077 10.635H54.6377V11.655H50.7077V10.635ZM44.8877 6.66H46.1327V10.185H49.8977V6.66H51.1127V15.765H44.8877V6.66ZM46.1327 11.175V14.745H49.8977V11.175H46.1327ZM58.1315 13.11H70.4015V14.115H58.1315V13.11ZM59.7215 17.85H69.1115V18.87H59.7215V17.85ZM59.7215 15.105H60.9515V18.225H59.7215V15.105ZM59.7515 10.875H68.9615V11.85H59.7515V10.875ZM59.7515 6.105H68.8865V7.08H60.9965V11.25H59.7515V6.105ZM60.6215 8.475H68.5265V9.435H60.6215V8.475Z" fill="#F5F5F5"/>
</svg>
