<svg width="100" height="100" viewBox="0 0 100 100" fill="none" xmlns="http://www.w3.org/2000/svg">
<circle cx="50" cy="50" r="50" fill="#0032A0"/>
<path d="M25.5472 41.0909V60H22.0941L13.8675 48.0987H13.729V60H9.73116V41.0909H13.2397L21.4016 52.983H21.5678V41.0909H25.5472ZM33.3682 41.0909V60H29.3703V41.0909H33.3682ZM40.5936 41.0909L45.1639 55.4574H45.3393L49.9189 41.0909H54.3507L47.8322 60H42.6803L36.1526 41.0909H40.5936ZM57.1466 60V41.0909H69.8881V44.3871H61.1445V48.8928H69.2326V52.1889H61.1445V56.7038H69.925V60H57.1466ZM76.8458 60H72.5617L79.0894 41.0909H84.2414L90.7599 60H86.4758L81.7393 45.4119H81.5915L76.8458 60ZM76.578 52.5675H86.6974V55.6882H76.578V52.5675Z" fill="white"/>
</svg>
