<svg width="40" height="40" viewBox="0 0 40 40" fill="none" xmlns="http://www.w3.org/2000/svg">
<rect width="40" height="40" fill="#FFC0CB"/>
<path d="M0.72 28V27.2L8.22 14.72H3.88C3.49333 14.72 3.18667 14.8 2.96 14.96C2.73333 15.1067 2.56667 15.3067 2.46 15.56C2.35333 15.8 2.28 16.0667 2.24 16.36L2.14 17.22H1.1L1.2 13.72H10.68V14.54L3.16 27H8.2C8.6 27 8.91333 26.9267 9.14 26.78C9.36667 26.62 9.53333 26.42 9.64 26.18C9.76 25.9267 9.83333 25.6533 9.86 25.36L9.96 24.5H11L10.9 28H0.72ZM19.2559 28.2C17.8426 28.2 16.6693 27.8933 15.7359 27.28C14.8026 26.6667 14.1026 25.8067 13.6359 24.7C13.1826 23.5933 12.9559 22.3 12.9559 20.82C12.9559 19.34 13.1826 18.0533 13.6359 16.96C14.1026 15.8667 14.8026 15.02 15.7359 14.42C16.6826 13.8067 17.8626 13.5 19.2759 13.5C20.6226 13.5 21.7559 13.8067 22.6759 14.42C23.6093 15.02 24.3159 15.8733 24.7959 16.98C25.2893 18.0733 25.5359 19.36 25.5359 20.84C25.5359 22.32 25.2893 23.6133 24.7959 24.72C24.3159 25.8133 23.6093 26.6667 22.6759 27.28C21.7426 27.8933 20.6026 28.2 19.2559 28.2ZM19.2559 27.12C20.0026 27.12 20.6293 26.98 21.1359 26.7C21.6559 26.42 22.0759 26.0133 22.3959 25.48C22.7159 24.9333 22.9493 24.2733 23.0959 23.5C23.2426 22.7133 23.3159 21.8267 23.3159 20.84C23.3159 19.8533 23.2426 18.9733 23.0959 18.2C22.9493 17.4267 22.7159 16.7733 22.3959 16.24C22.0893 15.6933 21.6759 15.28 21.1559 15C20.6493 14.72 20.0226 14.58 19.2759 14.58C18.5293 14.58 17.8959 14.72 17.3759 15C16.8559 15.28 16.4293 15.6933 16.0959 16.24C15.7759 16.7733 15.5426 17.4267 15.3959 18.2C15.2493 18.9733 15.1759 19.8533 15.1759 20.84C15.1759 21.8267 15.2493 22.7133 15.3959 23.5C15.5426 24.2733 15.7759 24.9333 16.0959 25.48C16.4293 26.0133 16.8559 26.42 17.3759 26.7C17.8959 26.98 18.5226 27.12 19.2559 27.12ZM27.4397 28V27.16H27.6997C27.993 27.16 28.2597 27.1333 28.4997 27.08C28.753 27.0133 28.953 26.8867 29.0997 26.7C29.2597 26.5 29.3397 26.2067 29.3397 25.82V16C29.3397 15.5733 29.2664 15.26 29.1197 15.06C28.973 14.86 28.773 14.7267 28.5197 14.66C28.2797 14.5933 28.0064 14.56 27.6997 14.56H27.4397V13.72H37.5197L37.6197 17.22H36.5797L36.4797 16.36C36.453 16.0667 36.373 15.8 36.2397 15.56C36.1197 15.3067 35.933 15.1067 35.6797 14.96C35.4397 14.8 35.1197 14.72 34.7197 14.72H31.3597V20.04H36.1797V21.02H31.3597V27H35.2197C35.6464 27 35.9864 26.9267 36.2397 26.78C36.5064 26.62 36.7064 26.42 36.8397 26.18C36.9864 25.9267 37.0797 25.6533 37.1197 25.36L37.2597 24.5H38.2997L38.1597 28H27.4397Z" fill="white"/>
</svg>
