<svg width="40" height="40" viewBox="0 0 40 40" fill="none" xmlns="http://www.w3.org/2000/svg">
<rect width="40" height="40" fill="#1C4831"/>
<path d="M7.67079 25.55C7.66407 25.55 7.66407 25.5565 7.65734 25.5565C7.62372 25.6081 7.50942 25.7889 7.41529 26.0406C7.32116 26.2988 7.26737 26.6021 7.26737 26.8603C7.26737 26.8732 7.2741 26.8797 7.28754 26.8797H11.705H28.1106H32.5281C32.5415 26.8797 32.5482 26.8732 32.5482 26.8603C32.5482 26.6086 32.4944 26.2988 32.4003 26.0406C32.3129 25.7889 32.1919 25.6081 32.1583 25.5565C32.1583 25.5565 32.1515 25.55 32.1448 25.55C31.9364 25.5565 30.8337 25.5952 29.684 25.6146L29.099 25.621V19.6763H32.4541C32.5751 19.6763 32.8979 19.4245 33.1803 18.9598C33.3147 18.7403 33.3954 18.5467 33.4156 18.4886C33.4156 18.4821 33.4156 18.4757 33.4156 18.4757C33.4156 18.4692 33.4089 18.4692 33.4021 18.4692C32.5079 18.2304 31.0085 17.2687 30.0067 16.2811C29.2671 15.5517 28.8502 14.9902 28.6082 14.3963C28.3527 13.7638 28.3392 13.1377 28.3661 12.802C27.9896 12.7891 27.5391 12.8407 27.1962 12.9247C27.0349 12.9634 26.8937 13.0021 26.8668 13.1893L26.8533 13.2409H26.7995C26.7861 13.2409 25.5691 13.2861 24.3051 13.3055L23.7873 13.3119H16.0417L15.524 13.3055C14.26 13.2861 13.0362 13.2409 13.0295 13.2409H12.9757L12.9623 13.1893C12.9354 12.9957 12.7942 12.9634 12.6328 12.9247C12.2899 12.8407 11.8394 12.7956 11.4629 12.802C11.4831 13.1377 11.4764 13.7638 11.2209 14.3963C10.9788 14.9902 10.562 15.5582 9.82235 16.2811C8.82053 17.2687 7.32788 18.2304 6.41347 18.4692C6.40675 18.4692 6.40675 18.4757 6.40002 18.4757C6.40002 18.4757 6.40002 18.4821 6.40002 18.4886C6.42692 18.5596 6.5076 18.7468 6.63535 18.9598C6.91774 19.431 7.24048 19.6763 7.3615 19.6763H10.7166V25.621L10.1316 25.6146C8.9819 25.6017 7.87922 25.5629 7.67079 25.55ZM27.6601 25.6598H23.4646V19.6827H27.6601V25.6598ZM22.0123 25.6598H17.8168V19.6827H22.0123V25.6598ZM16.3644 25.6598H12.1689V19.6827H16.3644V25.6598ZM30.6723 18.4821H9.15671L9.29791 18.3724C9.34497 18.3337 9.39876 18.295 9.45255 18.2498C9.94338 17.8689 10.7637 17.2235 11.4764 16.4489C12.2429 15.6098 12.6597 14.8288 12.7337 14.5835L12.7471 14.5383H27.0685L27.0819 14.5835C27.1626 14.8288 27.5727 15.6163 28.3392 16.4489C29.0519 17.2299 29.8722 17.8689 30.3631 18.2498C30.4236 18.295 30.4706 18.3337 30.5177 18.3724L30.6723 18.4821Z" fill="white"/>
</svg>
