<svg width="40" height="40" viewBox="0 0 40 40" fill="none" xmlns="http://www.w3.org/2000/svg">
<circle cx="20" cy="20" r="20" fill="#D9D9D9"/>
<path d="M35.4288 11.6438C35.0479 10.2095 33.9256 9.07993 32.5006 8.69658C29.9177 8 19.5605 8 19.5605 8C19.5605 8 9.20331 8 6.62033 8.69658C5.19533 9.07999 4.07301 10.2095 3.69209 11.6438C3 14.2435 3 19.6676 3 19.6676C3 19.6676 3 25.0917 3.69209 27.6914C4.07301 29.1257 5.19533 30.2082 6.62033 30.5915C9.20331 31.2881 19.5605 31.2881 19.5605 31.2881C19.5605 31.2881 29.9176 31.2881 32.5006 30.5915C33.9256 30.2082 35.0479 29.1257 35.4288 27.6914C36.1209 25.0917 36.1209 19.6676 36.1209 19.6676C36.1209 19.6676 36.1209 14.2435 35.4288 11.6438ZM16.1731 24.5922V14.7429L24.8296 19.6677L16.1731 24.5922Z" fill="#0D5611"/>
</svg>
