<svg width="214" height="59" viewBox="0 0 214 59" fill="none" xmlns="http://www.w3.org/2000/svg">
<path d="M62.464 41.968H63.84V42.992C63.84 45.584 62.304 47.84 59.696 48.688L58.848 47.36C61.152 46.656 62.464 44.864 62.464 42.992V41.968ZM62.8 41.968H64.176V42.992C64.176 44.768 65.504 46.448 67.76 47.12L66.928 48.432C64.352 47.632 62.8 45.488 62.8 42.992V41.968ZM59.312 41.584H67.296V42.928H59.312V41.584ZM69.104 40.704H70.784V48.624H69.104V40.704ZM61.232 49.312H62.88V50.864H69.12V49.312H70.784V55.152H61.232V49.312ZM62.88 52.176V53.792H69.12V52.176H62.88ZM85.1028 40.72H86.7828V51.456H85.1028V40.72ZM86.2868 44.992H88.8468V46.384H86.2868V44.992ZM77.5348 53.68H87.3748V55.04H77.5348V53.68ZM77.5348 50.4H79.2148V53.984H77.5348V50.4ZM75.8868 41.76H77.5508V44.048H81.1188V41.76H82.7668V49.072H75.8868V41.76ZM77.5508 45.344V47.744H81.1188V45.344H77.5508ZM95.4855 43.456H96.8615V44.096C96.8615 46.736 95.3735 48.976 92.7975 49.84L91.9655 48.512C94.2215 47.792 95.4855 46.016 95.4855 44.096V43.456ZM95.7895 43.456H97.1655V44.096C97.1655 45.856 98.3975 47.568 100.638 48.256L99.8215 49.568C97.2455 48.768 95.7895 46.592 95.7895 44.096V43.456ZM92.4135 42.576H100.238V43.904H92.4135V42.576ZM95.4855 40.8H97.1655V43.152H95.4855V40.8ZM101.742 40.704H103.422V51.536H101.742V40.704ZM102.926 45.152H105.486V46.528H102.926V45.152ZM94.1735 53.68H104.014V55.04H94.1735V53.68ZM94.1735 50.592H95.8535V54.512H94.1735V50.592ZM115.34 42.88H119.692V44.24H115.34V42.88ZM115.34 46.4H119.692V47.76H115.34V46.4ZM119.084 40.72H120.764V51.472H119.084V40.72ZM111.292 53.68H121.132V55.04H111.292V53.68ZM111.292 50.384H112.956V54.336H111.292V50.384ZM112.652 41.616C114.812 41.616 116.46 43.152 116.46 45.328C116.46 47.488 114.812 49.04 112.652 49.04C110.492 49.04 108.844 47.488 108.844 45.328C108.844 43.152 110.492 41.616 112.652 41.616ZM112.652 43.088C111.388 43.088 110.444 43.984 110.444 45.328C110.444 46.672 111.388 47.568 112.652 47.568C113.916 47.568 114.86 46.672 114.86 45.328C114.86 43.984 113.916 43.088 112.652 43.088ZM126.875 41.616H136.027V42.944H126.875V41.616ZM125.291 47.856H138.507V49.232H125.291V47.856ZM131.003 48.8H132.683V55.344H131.003V48.8ZM135.195 41.616H136.843V42.896C136.843 44.448 136.843 46.176 136.283 48.704L134.635 48.496C135.195 46.096 135.195 44.384 135.195 42.896V41.616ZM141.93 52.128H155.178V53.504H141.93V52.128ZM147.642 48.72H149.306V52.544H147.642V48.72ZM147.594 41.6H149.05V42.704C149.05 45.824 146.378 48.368 143.05 49.024L142.346 47.632C145.258 47.136 147.594 44.944 147.594 42.704V41.6ZM147.898 41.6H149.37V42.704C149.37 44.976 151.706 47.136 154.618 47.632L153.914 49.024C150.57 48.368 147.898 45.84 147.898 42.704V41.6Z" fill="white"/>
<path d="M2.304 28V10.336H5.112V17.56H12.672V10.336H15.456V28H12.672V19.984H5.112V28H2.304ZM29.7171 28.336C25.1571 28.336 22.0131 24.808 22.0131 19.096C22.0131 13.408 25.1571 10.024 29.7171 10.024C34.2531 10.024 37.3971 13.408 37.3971 19.096C37.3971 24.808 34.2531 28.336 29.7171 28.336ZM29.7171 25.888C32.6451 25.888 34.5411 23.224 34.5411 19.096C34.5411 14.968 32.6451 12.448 29.7171 12.448C26.7651 12.448 24.8931 14.968 24.8931 19.096C24.8931 23.224 26.7651 25.888 29.7171 25.888ZM43.9468 28V10.336H47.1628L50.3788 19.288C50.8108 20.44 51.1708 21.64 51.5788 22.84H51.6748C52.1068 21.64 52.4428 20.44 52.8268 19.288L56.0188 10.336H59.2348V28H56.6668V19.288C56.6668 17.68 56.8828 15.424 57.0268 13.816H56.9308L55.4908 17.896L52.4188 26.32H50.6908L47.6188 17.896L46.2028 13.816H46.1068C46.2508 15.424 46.4668 17.68 46.4668 19.288V28H43.9468ZM66.7487 28V10.336H77.2127V12.688H69.5567V17.584H76.0127V19.96H69.5567V25.648H77.4767V28H66.7487ZM84.0193 28V10.336H89.5153C93.1153 10.336 95.7313 11.488 95.7313 14.68C95.7313 16.384 94.8193 17.968 93.2353 18.52V18.616C95.2513 19.048 96.6913 20.44 96.6913 22.816C96.6913 26.32 93.8593 28 89.9473 28H84.0193ZM86.8273 17.704H89.2033C91.8913 17.704 92.9953 16.696 92.9953 15.064C92.9953 13.216 91.7473 12.52 89.2753 12.52H86.8273V17.704ZM86.8273 25.816H89.6353C92.3713 25.816 93.9553 24.832 93.9553 22.696C93.9553 20.704 92.4433 19.816 89.6353 19.816H86.8273V25.816ZM100.603 28L106.435 10.336H109.675L115.507 28H112.555L109.723 18.424C109.123 16.504 108.595 14.512 108.043 12.544H107.947C107.419 14.536 106.891 16.504 106.291 18.424L103.435 28H100.603ZM103.891 22.984V20.8H112.147V22.984H103.891ZM120.717 28V10.336H123.573L129.453 20.728L131.301 24.448H131.421C131.253 22.648 131.037 20.488 131.037 18.592V10.336H133.701V28H130.821L124.989 17.608L123.141 13.888H123.021C123.141 15.736 123.381 17.752 123.381 19.696V28H120.717ZM148.11 28.336C143.694 28.336 140.262 25.024 140.262 19.216C140.262 13.456 143.79 10.024 148.254 10.024C150.462 10.024 152.166 11.08 153.246 12.232L151.758 14.032C150.846 13.096 149.742 12.448 148.302 12.448C145.254 12.448 143.142 14.992 143.142 19.12C143.142 23.32 145.11 25.888 148.23 25.888C149.838 25.888 151.086 25.168 152.118 24.016L153.63 25.768C152.214 27.424 150.414 28.336 148.11 28.336ZM159.617 28V10.336H162.425V17.56H169.985V10.336H172.769V28H169.985V19.984H162.425V28H159.617ZM177.982 28L183.814 10.336H187.054L192.886 28H189.934L187.102 18.424C186.502 16.504 185.974 14.512 185.422 12.544H185.326C184.798 14.536 184.27 16.504 183.67 18.424L180.814 28H177.982ZM181.27 22.984V20.8H189.526V22.984H181.27ZM198.096 28V10.336H200.952L206.832 20.728L208.68 24.448H208.8C208.632 22.648 208.416 20.488 208.416 18.592V10.336H211.08V28H208.2L202.368 17.608L200.52 13.888H200.4C200.52 15.736 200.76 17.752 200.76 19.696V28H198.096Z" fill="white"/>
</svg>
