<svg width="100" height="100" viewBox="0 0 100 100" fill="none" xmlns="http://www.w3.org/2000/svg">
<rect width="100" height="100" rx="7" fill="#9E6F57"/>
<path d="M35.3281 37.4219L33.1875 42.2891H37.5234L35.3281 37.4219ZM36.1562 34.8672H36.4453L40.8359 44.4141C40.9766 44.7109 41.1328 44.9557 41.3047 45.1484C41.4818 45.3411 41.6797 45.4818 41.8984 45.5703C42.1172 45.6536 42.375 45.6953 42.6719 45.6953H42.9609V46H36.625V45.6953H37.4531C37.8646 45.6953 38.1641 45.6406 38.3516 45.5312C38.5443 45.4167 38.6406 45.2422 38.6406 45.0078C38.6406 44.862 38.6016 44.6849 38.5234 44.4766C38.4505 44.2682 38.2865 43.8906 38.0312 43.3438C38.0156 43.3125 37.9922 43.2604 37.9609 43.1875C37.9297 43.1146 37.8958 43.0443 37.8594 42.9766L37.6797 42.5781H33.0547L32.7031 43.3906C32.5885 43.6667 32.5312 43.9453 32.5312 44.2266C32.5312 44.4661 32.5964 44.7031 32.7266 44.9375C32.862 45.1719 33.0365 45.349 33.25 45.4688C33.3906 45.5521 33.5156 45.6094 33.625 45.6406C33.7396 45.6667 33.901 45.6849 34.1094 45.6953V46H29.6641V45.6953C29.987 45.6589 30.2422 45.6016 30.4297 45.5234C30.6224 45.4453 30.8359 45.3151 31.0703 45.1328C31.6224 44.7057 32.1615 43.901 32.6875 42.7188L36.1562 34.8672ZM43.8203 35.0859H51.2656V35.375H50.4766C49.8047 35.375 49.3073 35.5365 48.9844 35.8594C48.6615 36.1823 48.5 36.6823 48.5 37.3594V45.7109H51.3281C51.8854 45.7109 52.4115 45.5885 52.9062 45.3438C53.401 45.0938 53.8307 44.7474 54.1953 44.3047C54.4141 44.0286 54.6068 43.7552 54.7734 43.4844C54.9401 43.2135 55.099 42.8854 55.25 42.5C55.401 42.1146 55.5495 41.6719 55.6953 41.1719H55.9844V46H43.8203L43.8047 45.7109H44.2109C45.5339 45.7109 46.1953 45.0443 46.1953 43.7109V37.3594C46.1953 36.0365 45.5339 35.375 44.2109 35.375H43.8203V35.0859ZM56.9922 35.0859H64.4375V35.375H63.6484C62.9766 35.375 62.4792 35.5365 62.1562 35.8594C61.8333 36.1823 61.6719 36.6823 61.6719 37.3594V45.7109H64.5C65.0573 45.7109 65.5833 45.5885 66.0781 45.3438C66.5729 45.0938 67.0026 44.7474 67.3672 44.3047C67.5859 44.0286 67.7786 43.7552 67.9453 43.4844C68.112 43.2135 68.2708 42.8854 68.4219 42.5C68.5729 42.1146 68.7214 41.6719 68.8672 41.1719H69.1562V46H56.9922L56.9766 45.7109H57.3828C58.7057 45.7109 59.3672 45.0443 59.3672 43.7109V37.3594C59.3672 36.0365 58.7057 35.375 57.3828 35.375H56.9922V35.0859ZM12.125 59.6562H9.67188V62.7109C9.67188 63.3776 9.83594 63.875 10.1641 64.2031C10.4922 64.5312 10.9896 64.6953 11.6562 64.6953H11.9766V65H5.08594V64.6953H5.38281C6.05469 64.6953 6.55208 64.5339 6.875 64.2109C7.20312 63.8828 7.36719 63.3828 7.36719 62.7109V56.3594C7.36719 55.6823 7.20573 55.1823 6.88281 54.8594C6.5599 54.5365 6.0599 54.375 5.38281 54.375H5.08594V54.0859H13.5469C14.6927 54.0859 15.599 54.1693 16.2656 54.3359C16.9323 54.5026 17.4609 54.7839 17.8516 55.1797C18.0755 55.4036 18.2526 55.6693 18.3828 55.9766C18.5182 56.2839 18.5859 56.5885 18.5859 56.8906C18.5859 57.7135 18.1589 58.375 17.3047 58.875C16.987 59.0469 16.5547 59.2005 16.0078 59.3359C15.4609 59.4714 14.9167 59.5625 14.375 59.6094C13.9635 59.6406 13.3359 59.6562 12.4922 59.6562V59.6875C12.9089 59.9583 13.2865 60.1823 13.625 60.3594C13.9635 60.5365 14.3047 60.6875 14.6484 60.8125C14.9922 60.9323 15.3828 61.0417 15.8203 61.1406L16.0781 61.5312C16.25 61.7812 16.3776 61.9688 16.4609 62.0938C16.5443 62.2188 16.6406 62.362 16.75 62.5234C17.0417 62.9661 17.3177 63.3516 17.5781 63.6797C17.8438 64.0026 18.0625 64.2292 18.2344 64.3594C18.5729 64.5833 19.0573 64.6953 19.6875 64.6953H19.9922V65H15.8984L12.125 59.6562ZM9.67188 59.3672H12.7812C13.5156 59.3672 14.1172 59.2786 14.5859 59.1016C15.0599 58.9193 15.4115 58.6458 15.6406 58.2812C15.875 57.9115 15.9922 57.4375 15.9922 56.8594C15.9922 55.2031 14.9375 54.375 12.8281 54.375H9.67188V59.3672ZM20.7656 54.0859H32.375V58.3125H32.1406C31.9271 57.5729 31.7344 57.0208 31.5625 56.6562C31.3958 56.2865 31.1771 55.9375 30.9062 55.6094C30.5781 55.2188 30.2214 54.9401 29.8359 54.7734C29.1953 54.5078 28.4167 54.375 27.5 54.375H25.3516V59.5625H25.9297C26.7891 59.5625 27.4714 59.1927 27.9766 58.4531C28.237 58.0729 28.4297 57.6198 28.5547 57.0938C28.6172 56.8698 28.6745 56.5391 28.7266 56.1016H29V63.2578H28.7266C28.6641 62.8724 28.5885 62.5104 28.5 62.1719C28.4167 61.8281 28.3203 61.5495 28.2109 61.3359C28.1068 61.1224 27.9714 60.9089 27.8047 60.6953C27.3359 60.1172 26.6693 59.8281 25.8047 59.8281H25.3516V64.7109H27.1484C27.6797 64.7109 28.1562 64.6745 28.5781 64.6016C29.0052 64.5234 29.388 64.4062 29.7266 64.25C30.0651 64.0885 30.3828 63.8802 30.6797 63.625C31.1901 63.1927 31.5859 62.6536 31.8672 62.0078C32.0286 61.638 32.1979 61.138 32.375 60.5078H32.6641V65H20.7812L20.7656 64.7109H21.0625C22.3854 64.7109 23.0469 64.0443 23.0469 62.7109V56.3594C23.0469 55.6823 22.8854 55.1823 22.5625 54.8594C22.2396 54.5365 21.7396 54.375 21.0625 54.375H20.7656V54.0859ZM45.8516 61.1562H46.125C46 61.6198 45.862 62.0052 45.7109 62.3125C45.5599 62.6198 45.3516 62.9401 45.0859 63.2734C44.0286 64.5755 42.6146 65.2266 40.8438 65.2266C39.7292 65.2266 38.6901 64.9688 37.7266 64.4531C36.763 63.9323 35.9974 63.2344 35.4297 62.3594C34.862 61.4792 34.5781 60.5312 34.5781 59.5156C34.5781 58.9115 34.6901 58.3125 34.9141 57.7188C35.138 57.1198 35.4635 56.5625 35.8906 56.0469C36.3229 55.526 36.8229 55.0807 37.3906 54.7109C38.25 54.1484 39.2422 53.8672 40.3672 53.8672C40.7422 53.8672 41.0964 53.901 41.4297 53.9688C41.7682 54.0312 42.0859 54.1354 42.3828 54.2812C42.6849 54.4219 42.9948 54.6094 43.3125 54.8438C43.6667 55.0885 43.9271 55.2109 44.0938 55.2109C44.4635 55.2109 44.9271 54.8255 45.4844 54.0547H45.7578L45.9844 59.3047H45.7266C45.638 58.9245 45.5521 58.6146 45.4688 58.375C45.3906 58.1354 45.2839 57.8854 45.1484 57.625C44.7891 56.8906 44.3646 56.2604 43.875 55.7344C43.3854 55.2083 42.8516 54.8073 42.2734 54.5312C41.6953 54.2552 41.1016 54.1172 40.4922 54.1172C39.763 54.1172 39.1693 54.3125 38.7109 54.7031C38.2526 55.0885 37.9115 55.6927 37.6875 56.5156C37.4688 57.3333 37.3594 58.375 37.3594 59.6406C37.3594 60.3698 37.3984 61.0156 37.4766 61.5781C37.5547 62.1406 37.6745 62.6172 37.8359 63.0078C38.0026 63.3932 38.2109 63.7161 38.4609 63.9766C38.7682 64.2891 39.1406 64.5286 39.5781 64.6953C40.0208 64.8568 40.5026 64.9375 41.0234 64.9375C41.5078 64.9375 41.9714 64.875 42.4141 64.75C42.862 64.625 43.2786 64.4401 43.6641 64.1953C44.0547 63.9453 44.4115 63.638 44.7344 63.2734C44.9948 62.9714 45.2057 62.6693 45.3672 62.3672C45.5286 62.0599 45.6901 61.6562 45.8516 61.1562ZM47.9922 64.6953H48.2969C48.9688 64.6953 49.4661 64.5339 49.7891 64.2109C50.1172 63.8828 50.2812 63.3828 50.2812 62.7109C50.3229 62.4297 50.3542 62.1823 50.375 61.9688C50.401 61.75 50.4167 61.5026 50.4219 61.2266C50.4271 60.9453 50.4271 60.5938 50.4219 60.1719C50.401 58.3906 50.349 57.0495 50.2656 56.1484C50.2344 55.7839 50.1745 55.5 50.0859 55.2969C50.0026 55.0938 49.875 54.9245 49.7031 54.7891C49.3906 54.513 48.9219 54.375 48.2969 54.375H47.9922V54.0859H54.8672V54.375H54.5625C53.8906 54.375 53.3932 54.5365 53.0703 54.8594C52.7474 55.1823 52.5859 55.6823 52.5859 56.3594V62.7109C52.5859 63.3828 52.7474 63.8828 53.0703 64.2109C53.3984 64.5339 53.8958 64.6953 54.5625 64.6953H54.8672V65H47.9922V64.6953ZM60.6172 54.375V59.8125H62.7969C63.875 59.8125 64.6719 59.5911 65.1875 59.1484C65.7031 58.7005 65.9609 58.0104 65.9609 57.0781C65.9609 55.9896 65.6042 55.2318 64.8906 54.8047C64.6354 54.6536 64.3359 54.5443 63.9922 54.4766C63.6484 54.4089 63.2214 54.375 62.7109 54.375H60.6172ZM55.9609 54.0859H62.4766C62.862 54.0859 63.2839 54.099 63.7422 54.125C64.2005 54.151 64.612 54.1849 64.9766 54.2266C65.3411 54.263 65.6432 54.3073 65.8828 54.3594C66.7422 54.5417 67.3984 54.8698 67.8516 55.3438C68.3099 55.8125 68.5391 56.3958 68.5391 57.0938C68.5391 57.5729 68.4297 58 68.2109 58.375C67.9922 58.75 67.6693 59.0677 67.2422 59.3281C66.8203 59.5833 66.3021 59.7786 65.6875 59.9141C65.0729 60.0495 64.3802 60.1172 63.6094 60.1172H60.6172V62.7109C60.6172 64.0443 61.2786 64.7109 62.6016 64.7109H63.1484V65H55.9453V64.7109H56.3281C57.651 64.7109 58.3125 64.0443 58.3125 62.7109V56.3594C58.3125 55.0365 57.651 54.375 56.3281 54.375H55.9609V54.0859ZM69.625 54.0859H81.2344V58.3125H81C80.7865 57.5729 80.5938 57.0208 80.4219 56.6562C80.2552 56.2865 80.0365 55.9375 79.7656 55.6094C79.4375 55.2188 79.0807 54.9401 78.6953 54.7734C78.0547 54.5078 77.276 54.375 76.3594 54.375H74.2109V59.5625H74.7891C75.6484 59.5625 76.3307 59.1927 76.8359 58.4531C77.0964 58.0729 77.2891 57.6198 77.4141 57.0938C77.4766 56.8698 77.5339 56.5391 77.5859 56.1016H77.8594V63.2578H77.5859C77.5234 62.8724 77.4479 62.5104 77.3594 62.1719C77.276 61.8281 77.1797 61.5495 77.0703 61.3359C76.9661 61.1224 76.8307 60.9089 76.6641 60.6953C76.1953 60.1172 75.5286 59.8281 74.6641 59.8281H74.2109V64.7109H76.0078C76.5391 64.7109 77.0156 64.6745 77.4375 64.6016C77.8646 64.5234 78.2474 64.4062 78.5859 64.25C78.9245 64.0885 79.2422 63.8802 79.5391 63.625C80.0495 63.1927 80.4453 62.6536 80.7266 62.0078C80.888 61.638 81.0573 61.138 81.2344 60.5078H81.5234V65H69.6406L69.625 64.7109H69.9219C71.2448 64.7109 71.9062 64.0443 71.9062 62.7109V56.3594C71.9062 55.6823 71.7448 55.1823 71.4219 54.8594C71.099 54.5365 70.599 54.375 69.9219 54.375H69.625V54.0859ZM93.0938 54.2969H93.3672V58.0391H93.0938C92.7656 57.138 92.3932 56.4349 91.9766 55.9297C91.6745 55.5755 91.2943 55.2656 90.8359 55C90.3828 54.7292 89.8724 54.5182 89.3047 54.3672C88.7422 54.2109 88.1719 54.1328 87.5938 54.1328C87.1615 54.1328 86.776 54.1927 86.4375 54.3125C86.099 54.4323 85.8125 54.6094 85.5781 54.8438C85.4115 55.0104 85.2786 55.1979 85.1797 55.4062C85.0807 55.6146 85.0312 55.8151 85.0312 56.0078C85.0312 56.3724 85.1719 56.6875 85.4531 56.9531C85.5833 57.0833 85.7682 57.2083 86.0078 57.3281C86.2526 57.4479 86.5651 57.5651 86.9453 57.6797C87.3307 57.7943 87.8672 57.9349 88.5547 58.1016C88.7422 58.1589 88.8698 58.1927 88.9375 58.2031L89.3203 58.2969L89.9297 58.4531C90.9609 58.7188 91.7135 58.9531 92.1875 59.1562C92.6615 59.3594 93.0651 59.6276 93.3984 59.9609C93.6589 60.2057 93.8594 60.4922 94 60.8203C94.1458 61.1484 94.2188 61.5026 94.2188 61.8828C94.2188 62.2578 94.138 62.6354 93.9766 63.0156C93.8151 63.3906 93.5859 63.7214 93.2891 64.0078C92.9036 64.4036 92.4271 64.7005 91.8594 64.8984C91.2969 65.0964 90.6536 65.1953 89.9297 65.1953C89.4245 65.1953 88.9479 65.1432 88.5 65.0391C88.0573 64.9401 87.5156 64.7552 86.875 64.4844C86.4583 64.3177 86.1406 64.2057 85.9219 64.1484C85.7031 64.0859 85.4974 64.0547 85.3047 64.0547C84.9349 64.0547 84.6198 64.1536 84.3594 64.3516C84.1042 64.5443 83.9349 64.8203 83.8516 65.1797H83.5781V60.1328H83.8516C83.9609 61.0286 84.3229 61.8411 84.9375 62.5703C85.3073 62.9974 85.7786 63.3958 86.3516 63.7656C86.9297 64.1302 87.5339 64.4141 88.1641 64.6172C88.7943 64.8203 89.3932 64.9219 89.9609 64.9219C90.4661 64.9219 90.9271 64.8385 91.3438 64.6719C91.7656 64.5052 92.0938 64.2734 92.3281 63.9766C92.5625 63.6797 92.6797 63.3438 92.6797 62.9688C92.6797 62.5729 92.5208 62.2161 92.2031 61.8984C92.0573 61.7578 91.8672 61.6276 91.6328 61.5078C91.4036 61.388 91.1042 61.2656 90.7344 61.1406C90.3698 61.0156 89.8672 60.8672 89.2266 60.6953L88.4453 60.4844C87.2266 60.1562 86.3828 59.901 85.9141 59.7188C85.388 59.526 84.974 59.3333 84.6719 59.1406C84.375 58.9479 84.1172 58.7031 83.8984 58.4062C83.5755 57.9896 83.4141 57.5312 83.4141 57.0312C83.4141 56.4271 83.5938 55.8854 83.9531 55.4062C84.3125 54.9219 84.8151 54.5443 85.4609 54.2734C86.1068 54.0026 86.8229 53.8672 87.6094 53.8672C88.7969 53.8672 90.0286 54.1979 91.3047 54.8594C91.7526 55.0833 92.0573 55.1953 92.2188 55.1953C92.625 55.1953 92.9167 54.8958 93.0938 54.2969Z" fill="black"/>
</svg>
