<svg width="35" height="1570" viewBox="0 0 35 1570" fill="none" xmlns="http://www.w3.org/2000/svg">
<path d="M17.9963 1544L22.2412 1548.24C23.0808 1549.08 23.6526 1550.15 23.8844 1551.32C24.1163 1552.48 23.9977 1553.69 23.5437 1554.78C23.0896 1555.88 22.3206 1556.82 21.3338 1557.48C20.347 1558.14 19.1869 1558.49 18 1558.49C16.8131 1558.49 15.653 1558.14 14.6662 1557.48C13.6794 1556.82 12.9104 1555.88 12.4563 1554.78C12.0023 1553.69 11.8837 1552.48 12.1156 1551.32C12.3474 1550.15 12.9192 1549.08 13.7588 1548.24L17.9963 1544Z" fill="white"/>
<circle cx="17.5" cy="1552.5" r="17.5" fill="#E9E9E9"/>
<path d="M17.9963 1545L22.2412 1549.24C23.0808 1550.08 23.6526 1551.15 23.8844 1552.32C24.1163 1553.48 23.9977 1554.69 23.5437 1555.78C23.0896 1556.88 22.3206 1557.82 21.3338 1558.48C20.347 1559.14 19.1869 1559.49 18 1559.49C16.8131 1559.49 15.653 1559.14 14.6662 1558.48C13.6794 1557.82 12.9104 1556.88 12.4563 1555.78C12.0023 1554.69 11.8837 1553.48 12.1156 1552.32C12.3474 1551.15 12.9192 1550.08 13.7588 1549.24L17.9963 1545Z" fill="white"/>
<rect x="17" y="1041" width="2" height="494" fill="#E9E9E9"/>
<circle cx="17.5" cy="1029.5" r="11.5" fill="#E9E9E9"/>
<path d="M14 1031.5L17.5 1027L21 1031.5" stroke="white" stroke-width="2" stroke-linecap="round" stroke-linejoin="round"/>
<circle cx="17.5" cy="530.5" r="11.5" fill="#E9E9E9"/>
<path d="M14 532.5L17.5 528L21 532.5" stroke="white" stroke-width="2" stroke-linecap="round" stroke-linejoin="round"/>
<rect x="17" y="542" width="2" height="476" fill="#E9E9E9"/>
<circle cx="17.5" cy="11.5" r="11.5" fill="#E9E9E9"/>
<path d="M14 13.5L17.5 9L21 13.5" stroke="white" stroke-width="2" stroke-linecap="round" stroke-linejoin="round"/>
<rect x="17" y="23" width="2" height="496" fill="#E9E9E9"/>
</svg>
